<mxfile host="app.diagrams.net" modified="2022-08-07T23:36:52.328Z" agent="5.0 (Windows NT 10.0; Win64; x64) AppleWebKit/537.36 (KHTML, like Gecko) Chrome/104.0.0.0 Safari/537.36" etag="Uu8smzd5eb9xkNTE2tCo" version="20.2.3" type="github">
  <diagram id="Zi-IdDZvf-XGHymGtbge" name="Page-1">
    <mxGraphModel dx="914" dy="1903" grid="1" gridSize="10" guides="1" tooltips="1" connect="1" arrows="1" fold="1" page="1" pageScale="1" pageWidth="850" pageHeight="1100" math="0" shadow="0">
      <root>
        <mxCell id="0" />
        <mxCell id="1" parent="0" />
        <mxCell id="2jC8lsVwugVBiCHZB-My-1" value="Functional Requirements:&lt;br&gt;&lt;span style=&quot;font-weight: normal;&quot;&gt;Real-time messaging&lt;br&gt;Online Status&lt;br&gt;Media uploads&lt;br&gt;Read receipts&lt;br&gt;Notifications&lt;/span&gt;" style="text;html=1;align=left;verticalAlign=middle;resizable=0;points=[];autosize=1;strokeColor=none;fillColor=none;fontStyle=1" parent="1" vertex="1">
          <mxGeometry x="5" y="-15" width="170" height="100" as="geometry" />
        </mxCell>
        <mxCell id="2jC8lsVwugVBiCHZB-My-2" value="&lt;b&gt;Non-functional Requirements:&lt;/b&gt;&lt;br&gt;Low latency&lt;br&gt;High Volume&lt;br&gt;Reliable&amp;nbsp;&lt;br&gt;Secure" style="text;html=1;align=left;verticalAlign=middle;resizable=0;points=[];autosize=1;strokeColor=none;fillColor=none;" parent="1" vertex="1">
          <mxGeometry x="10" y="85" width="200" height="90" as="geometry" />
        </mxCell>
        <mxCell id="vfJ7Y360fpqIS0XEaNpH-4" style="edgeStyle=orthogonalEdgeStyle;rounded=0;orthogonalLoop=1;jettySize=auto;html=1;entryX=0.5;entryY=0;entryDx=0;entryDy=0;" edge="1" parent="1" source="vfJ7Y360fpqIS0XEaNpH-1" target="vfJ7Y360fpqIS0XEaNpH-3">
          <mxGeometry relative="1" as="geometry" />
        </mxCell>
        <mxCell id="vfJ7Y360fpqIS0XEaNpH-1" value="User" style="ellipse;whiteSpace=wrap;html=1;aspect=fixed;" vertex="1" parent="1">
          <mxGeometry y="240" width="80" height="80" as="geometry" />
        </mxCell>
        <mxCell id="vfJ7Y360fpqIS0XEaNpH-5" style="edgeStyle=orthogonalEdgeStyle;rounded=0;orthogonalLoop=1;jettySize=auto;html=1;entryX=0.5;entryY=1;entryDx=0;entryDy=0;" edge="1" parent="1" source="vfJ7Y360fpqIS0XEaNpH-2" target="vfJ7Y360fpqIS0XEaNpH-3">
          <mxGeometry relative="1" as="geometry" />
        </mxCell>
        <mxCell id="vfJ7Y360fpqIS0XEaNpH-2" value="User" style="ellipse;whiteSpace=wrap;html=1;aspect=fixed;" vertex="1" parent="1">
          <mxGeometry y="410" width="80" height="80" as="geometry" />
        </mxCell>
        <mxCell id="vfJ7Y360fpqIS0XEaNpH-11" style="edgeStyle=orthogonalEdgeStyle;rounded=0;orthogonalLoop=1;jettySize=auto;html=1;exitX=1;exitY=0.5;exitDx=0;exitDy=0;entryX=0;entryY=0.5;entryDx=0;entryDy=0;" edge="1" parent="1" source="vfJ7Y360fpqIS0XEaNpH-3" target="vfJ7Y360fpqIS0XEaNpH-9">
          <mxGeometry relative="1" as="geometry" />
        </mxCell>
        <mxCell id="vfJ7Y360fpqIS0XEaNpH-12" style="edgeStyle=orthogonalEdgeStyle;rounded=0;orthogonalLoop=1;jettySize=auto;html=1;exitX=1;exitY=0;exitDx=0;exitDy=0;entryX=0;entryY=0.5;entryDx=0;entryDy=0;" edge="1" parent="1" source="vfJ7Y360fpqIS0XEaNpH-3" target="vfJ7Y360fpqIS0XEaNpH-8">
          <mxGeometry relative="1" as="geometry" />
        </mxCell>
        <mxCell id="vfJ7Y360fpqIS0XEaNpH-13" style="edgeStyle=orthogonalEdgeStyle;rounded=0;orthogonalLoop=1;jettySize=auto;html=1;exitX=1;exitY=1;exitDx=0;exitDy=0;entryX=0;entryY=0.5;entryDx=0;entryDy=0;" edge="1" parent="1" source="vfJ7Y360fpqIS0XEaNpH-3" target="vfJ7Y360fpqIS0XEaNpH-10">
          <mxGeometry relative="1" as="geometry" />
        </mxCell>
        <mxCell id="vfJ7Y360fpqIS0XEaNpH-3" value="Load Balancer" style="whiteSpace=wrap;html=1;" vertex="1" parent="1">
          <mxGeometry x="140" y="340" width="120" height="60" as="geometry" />
        </mxCell>
        <mxCell id="vfJ7Y360fpqIS0XEaNpH-6" value="&lt;div style=&quot;text-align: left;&quot;&gt;&lt;b style=&quot;background-color: initial;&quot;&gt;Long-Pulling:&lt;/b&gt;&lt;/div&gt;&lt;div style=&quot;text-align: left;&quot;&gt;&lt;span style=&quot;background-color: initial;&quot;&gt;Maintain open connection with the servers.&lt;/span&gt;&lt;/div&gt;&lt;div style=&quot;text-align: left;&quot;&gt;&lt;span style=&quot;background-color: initial;&quot;&gt;Wait until the header has a message before responding&lt;/span&gt;&lt;/div&gt;&lt;div style=&quot;text-align: left;&quot;&gt;&lt;span style=&quot;background-color: initial;&quot;&gt;Good for Notifications system&lt;/span&gt;&lt;/div&gt;" style="text;html=1;align=center;verticalAlign=middle;resizable=0;points=[];autosize=1;strokeColor=none;fillColor=none;" vertex="1" parent="1">
          <mxGeometry y="530" width="320" height="70" as="geometry" />
        </mxCell>
        <mxCell id="vfJ7Y360fpqIS0XEaNpH-7" value="&lt;b&gt;WebSockets:&lt;/b&gt;&lt;br&gt;Designed for real time chat messages&lt;br&gt;Open duplex connections with the servers and the users&lt;br&gt;Maintain and kept open for the duration of the session&lt;br&gt;Can only have 65000 open connections at the same time, so have to have multiple API servers&lt;br&gt;Bad for weak connections, have to establish connections for again&amp;nbsp;&lt;br&gt;Some browsers do not support this &amp;lt;2011" style="text;html=1;align=left;verticalAlign=middle;resizable=0;points=[];autosize=1;strokeColor=none;fillColor=none;" vertex="1" parent="1">
          <mxGeometry x="10" y="615" width="530" height="110" as="geometry" />
        </mxCell>
        <mxCell id="vfJ7Y360fpqIS0XEaNpH-16" style="edgeStyle=orthogonalEdgeStyle;rounded=0;orthogonalLoop=1;jettySize=auto;html=1;" edge="1" parent="1" source="vfJ7Y360fpqIS0XEaNpH-8" target="vfJ7Y360fpqIS0XEaNpH-15">
          <mxGeometry relative="1" as="geometry" />
        </mxCell>
        <mxCell id="vfJ7Y360fpqIS0XEaNpH-8" value="API&lt;br&gt;" style="whiteSpace=wrap;html=1;" vertex="1" parent="1">
          <mxGeometry x="340" y="190" width="120" height="60" as="geometry" />
        </mxCell>
        <mxCell id="vfJ7Y360fpqIS0XEaNpH-17" style="edgeStyle=orthogonalEdgeStyle;rounded=0;orthogonalLoop=1;jettySize=auto;html=1;" edge="1" parent="1" source="vfJ7Y360fpqIS0XEaNpH-9">
          <mxGeometry relative="1" as="geometry">
            <mxPoint x="510" y="370" as="targetPoint" />
          </mxGeometry>
        </mxCell>
        <mxCell id="vfJ7Y360fpqIS0XEaNpH-9" value="API&lt;br&gt;" style="whiteSpace=wrap;html=1;" vertex="1" parent="1">
          <mxGeometry x="340" y="340" width="120" height="60" as="geometry" />
        </mxCell>
        <mxCell id="vfJ7Y360fpqIS0XEaNpH-18" style="edgeStyle=orthogonalEdgeStyle;rounded=0;orthogonalLoop=1;jettySize=auto;html=1;" edge="1" parent="1" source="vfJ7Y360fpqIS0XEaNpH-10" target="vfJ7Y360fpqIS0XEaNpH-15">
          <mxGeometry relative="1" as="geometry" />
        </mxCell>
        <mxCell id="vfJ7Y360fpqIS0XEaNpH-10" value="API&lt;br&gt;" style="whiteSpace=wrap;html=1;" vertex="1" parent="1">
          <mxGeometry x="340" y="480" width="120" height="60" as="geometry" />
        </mxCell>
        <mxCell id="vfJ7Y360fpqIS0XEaNpH-14" value="API servers need to talk to each other&lt;br&gt;" style="text;html=1;align=center;verticalAlign=middle;resizable=0;points=[];autosize=1;strokeColor=none;fillColor=none;" vertex="1" parent="1">
          <mxGeometry x="470" y="110" width="220" height="30" as="geometry" />
        </mxCell>
        <mxCell id="vfJ7Y360fpqIS0XEaNpH-15" value="Message Services&lt;br&gt;(message queue)" style="whiteSpace=wrap;html=1;" vertex="1" parent="1">
          <mxGeometry x="510" y="190" width="120" height="350" as="geometry" />
        </mxCell>
        <mxCell id="vfJ7Y360fpqIS0XEaNpH-19" value="Each API Server will publish messages into this queue, &lt;br&gt;and receive updates" style="text;html=1;align=center;verticalAlign=middle;resizable=0;points=[];autosize=1;strokeColor=none;fillColor=none;" vertex="1" parent="1">
          <mxGeometry x="430" y="140" width="320" height="40" as="geometry" />
        </mxCell>
        <mxCell id="vfJ7Y360fpqIS0XEaNpH-21" value="Database" style="shape=cylinder3;whiteSpace=wrap;html=1;boundedLbl=1;backgroundOutline=1;size=15;" vertex="1" parent="1">
          <mxGeometry x="740" y="190" width="60" height="80" as="geometry" />
        </mxCell>
      </root>
    </mxGraphModel>
  </diagram>
</mxfile>
